<svg width="406" height="53" xmlns="http://www.w3.org/2000/svg"><g fill="none" fill-rule="evenodd"><path d="M29.088 6.016v8.448h-9.024V40H9.408V14.464H.48V6.016h28.608zm2.112-.48c0-1.536.56-2.808 1.68-3.816C34 .712 35.488.208 37.344.208c1.824 0 3.296.504 4.416 1.512 1.12 1.008 1.68 2.28 1.68 3.816 0 1.504-.56 2.752-1.68 3.744-1.12.992-2.592 1.488-4.416 1.488-1.856 0-3.344-.496-4.464-1.488-1.12-.992-1.68-2.24-1.68-3.744zm11.424 7.392V40H31.968V12.928h10.656zm23.76-.192c3.104 0 5.528 1.04 7.272 3.12 1.744 2.08 2.616 4.896 2.616 8.448V40H65.664V25.648c0-1.28-.344-2.296-1.032-3.048-.688-.752-1.608-1.128-2.76-1.128-1.184 0-2.112.376-2.784 1.128-.672.752-1.008 1.768-1.008 3.048V40H47.424V12.928H58.08v4.128c.832-1.28 1.944-2.32 3.336-3.12 1.392-.8 3.048-1.2 4.968-1.2zM98.208 40l-6.672-10.8V40H80.88V4.48h10.656v18.576l6.768-10.128h12.384L100.56 26.56 110.928 40h-12.72zm41.328-13.776c0 .672-.08 1.376-.24 2.112h-17.04c.096 1.344.4 2.264.912 2.76s1.184.744 2.016.744c1.152 0 1.984-.528 2.496-1.584h11.28a11.73 11.73 0 0 1-2.424 5.16c-1.232 1.52-2.784 2.72-4.656 3.6-1.872.88-3.928 1.32-6.168 1.32-2.688 0-5.08-.56-7.176-1.68-2.096-1.12-3.728-2.728-4.896-4.824-1.168-2.096-1.752-4.552-1.752-7.368 0-2.816.584-5.272 1.752-7.368 1.168-2.096 2.8-3.704 4.896-4.824 2.096-1.12 4.488-1.68 7.176-1.68 2.688 0 5.08.552 7.176 1.656a11.914 11.914 0 0 1 4.896 4.728c1.168 2.048 1.752 4.464 1.752 7.248zm-10.8-2.256c0-1.024-.288-1.784-.864-2.28-.576-.496-1.296-.744-2.16-.744-1.952 0-3.072 1.008-3.36 3.024h6.384zm24.816-6.048c1.088-1.568 2.416-2.824 3.984-3.768s3.2-1.416 4.896-1.416v11.376h-3.024c-2.016 0-3.496.352-4.44 1.056-.944.704-1.416 1.952-1.416 3.744V40h-10.656V12.928h10.656v4.992z" fill="#3CDAA7"/><path d="M205.088 6.016v8.448h-9.024V40h-10.656V14.464h-8.928V6.016h28.608zm15.744 6.576c2.72 0 5.168.56 7.344 1.68 2.176 1.12 3.88 2.728 5.112 4.824 1.232 2.096 1.848 4.552 1.848 7.368 0 2.816-.616 5.272-1.848 7.368-1.232 2.096-2.936 3.704-5.112 4.824-2.176 1.12-4.624 1.68-7.344 1.68-2.72 0-5.168-.56-7.344-1.68-2.176-1.12-3.88-2.728-5.112-4.824-1.232-2.096-1.848-4.552-1.848-7.368 0-2.816.616-5.272 1.848-7.368 1.232-2.096 2.936-3.704 5.112-4.824 2.176-1.12 4.624-1.68 7.344-1.68zm0 9.216c-.992 0-1.824.392-2.496 1.176-.672.784-1.008 1.944-1.008 3.48s.328 2.696.984 3.48c.656.784 1.496 1.176 2.52 1.176.992 0 1.824-.392 2.496-1.176.672-.784 1.008-1.944 1.008-3.48s-.336-2.696-1.008-3.48c-.672-.784-1.504-1.176-2.496-1.176zm26.64-8.88l5.088 13.728 4.752-13.728h11.76L251.744 52.96H240.08l6.816-14.304-11.28-25.728h11.856z" fill="#E24B0A"/><path d="M308.656 29.968c0 1.952-.504 3.712-1.512 5.28s-2.472 2.808-4.392 3.72c-1.92.912-4.208 1.368-6.864 1.368-4.064 0-7.416-.952-10.056-2.856-2.64-1.904-4.072-4.696-4.296-8.376h11.328c.16 1.952 1.024 2.928 2.592 2.928.544 0 .984-.144 1.32-.432.336-.288.504-.704.504-1.248 0-.8-.408-1.432-1.224-1.896-.816-.464-2.136-1-3.96-1.608-2.144-.704-3.928-1.424-5.352-2.16-1.424-.736-2.664-1.824-3.72-3.264-1.056-1.44-1.584-3.312-1.584-5.616 0-2.208.568-4.088 1.704-5.64 1.136-1.552 2.688-2.728 4.656-3.528 1.968-.8 4.184-1.2 6.648-1.2 4.064 0 7.296.944 9.696 2.832 2.4 1.888 3.712 4.608 3.936 8.16h-11.472c-.16-1.792-.896-2.688-2.208-2.688-.448 0-.816.136-1.104.408-.288.272-.432.68-.432 1.224 0 .736.408 1.336 1.224 1.8.816.464 2.088 1 3.816 1.608 2.176.768 3.976 1.528 5.4 2.28 1.424.752 2.672 1.856 3.744 3.312 1.072 1.456 1.608 3.32 1.608 5.592zm22.704-17.232c3.104 0 5.528 1.04 7.272 3.12 1.744 2.08 2.616 4.896 2.616 8.448V40H330.64V25.648c0-1.28-.344-2.296-1.032-3.048-.688-.752-1.608-1.128-2.76-1.128-1.184 0-2.112.376-2.784 1.128-.672.752-1.008 1.768-1.008 3.048V40H312.4V4.48h10.656v12.576c.832-1.28 1.944-2.32 3.336-3.12 1.392-.8 3.048-1.2 4.968-1.2zm27.36-.144c2.72 0 5.168.56 7.344 1.68 2.176 1.12 3.88 2.728 5.112 4.824 1.232 2.096 1.848 4.552 1.848 7.368 0 2.816-.616 5.272-1.848 7.368-1.232 2.096-2.936 3.704-5.112 4.824-2.176 1.12-4.624 1.68-7.344 1.68-2.72 0-5.168-.56-7.344-1.68-2.176-1.12-3.88-2.728-5.112-4.824-1.232-2.096-1.848-4.552-1.848-7.368 0-2.816.616-5.272 1.848-7.368 1.232-2.096 2.936-3.704 5.112-4.824 2.176-1.12 4.624-1.68 7.344-1.68zm0 9.216c-.992 0-1.824.392-2.496 1.176-.672.784-1.008 1.944-1.008 3.48s.328 2.696.984 3.48c.656.784 1.496 1.176 2.52 1.176.992 0 1.824-.392 2.496-1.176.672-.784 1.008-1.944 1.008-3.48s-.336-2.696-1.008-3.48c-.672-.784-1.504-1.176-2.496-1.176zm35.76-9.216c2.112 0 4.016.552 5.712 1.656 1.696 1.104 3.032 2.704 4.008 4.8.976 2.096 1.464 4.568 1.464 7.416 0 2.848-.488 5.32-1.464 7.416s-2.312 3.696-4.008 4.8c-1.696 1.104-3.6 1.656-5.712 1.656-1.76 0-3.272-.36-4.536-1.08-1.264-.72-2.232-1.704-2.904-2.952V52.96h-10.656V12.928h10.656v3.696c.672-1.248 1.64-2.232 2.904-2.952 1.264-.72 2.776-1.08 4.536-1.08zm-3.552 9.312c-1.152 0-2.096.4-2.832 1.2-.736.8-1.104 1.92-1.104 3.36s.368 2.56 1.104 3.36c.736.8 1.68 1.2 2.832 1.2s2.096-.4 2.832-1.2c.736-.8 1.104-1.92 1.104-3.36s-.368-2.56-1.104-3.36c-.736-.8-1.68-1.2-2.832-1.2z" fill="#FAD808"/></g></svg>