<?xml version="1.0" encoding="UTF-8"?>
<svg width="406px" height="53px" viewBox="0 0 406 53" version="1.1" xmlns="http://www.w3.org/2000/svg" xmlns:xlink="http://www.w3.org/1999/xlink">
    <!-- Generator: Sketch 43.2 (39069) - http://www.bohemiancoding.com/sketch -->
    <title>Tinker Toy Shop</title>
    <desc>Created with Sketch.</desc>
    <defs></defs>
    <g id="Page-1" stroke="none" stroke-width="1" fill="none" fill-rule="evenodd">
        <path d="M29.088,6.016 L29.088,14.464 L20.064,14.464 L20.064,40 L9.408,40 L9.408,14.464 L0.48,14.464 L0.48,6.016 L29.088,6.016 Z M31.2,5.536 C31.2,3.99999232 31.7599944,2.72800504 32.88,1.72 C34.0000056,0.71199496 35.4879907,0.208 37.344,0.208 C39.1680091,0.208 40.6399944,0.71199496 41.76,1.72 C42.8800056,2.72800504 43.44,3.99999232 43.44,5.536 C43.44,7.04000752 42.8800056,8.28799504 41.76,9.28 C40.6399944,10.272005 39.1680091,10.768 37.344,10.768 C35.4879907,10.768 34.0000056,10.272005 32.88,9.28 C31.7599944,8.28799504 31.2,7.04000752 31.2,5.536 Z M42.624,12.928 L42.624,40 L31.968,40 L31.968,12.928 L42.624,12.928 Z M66.384,12.736 C69.4880155,12.736 71.9119913,13.7759896 73.656,15.856 C75.4000087,17.9360104 76.272,20.7519822 76.272,24.304 L76.272,40 L65.664,40 L65.664,25.648 C65.664,24.3679936 65.3200034,23.3520038 64.632,22.6 C63.9439966,21.8479962 63.0240058,21.472 61.872,21.472 C60.6879941,21.472 59.7600034,21.8479962 59.088,22.6 C58.4159966,23.3520038 58.08,24.3679936 58.08,25.648 L58.08,40 L47.424,40 L47.424,12.928 L58.08,12.928 L58.08,17.056 C58.9120042,15.7759936 60.023993,14.736004 61.416,13.936 C62.808007,13.135996 64.4639904,12.736 66.384,12.736 Z M98.208,40 L91.536,29.2 L91.536,40 L80.88,40 L80.88,4.48 L91.536,4.48 L91.536,23.056 L98.304,12.928 L110.688,12.928 L100.56,26.56 L110.928,40 L98.208,40 Z M139.536,26.224 C139.536,26.8960034 139.456001,27.5999963 139.296,28.336 L122.256,28.336 C122.352,29.6800067 122.655997,30.5999975 123.168,31.096 C123.680003,31.5920025 124.351996,31.84 125.184,31.84 C126.336006,31.84 127.167997,31.3120053 127.68,30.256 L138.96,30.256 C138.575998,32.1760096 137.768006,33.8959924 136.536,35.416 C135.303994,36.9360076 133.752009,38.1359956 131.88,39.016 C130.007991,39.8960044 127.952011,40.336 125.712,40.336 C123.023987,40.336 120.63201,39.7760056 118.536,38.656 C116.43999,37.5359944 114.808006,35.9280105 113.64,33.832 C112.471994,31.7359895 111.888,29.2800141 111.888,26.464 C111.888,23.6479859 112.471994,21.1920105 113.64,19.096 C114.808006,16.9999895 116.43999,15.3920056 118.536,14.272 C120.63201,13.1519944 123.023987,12.592 125.712,12.592 C128.400013,12.592 130.79199,13.1439945 132.888,14.248 C134.98401,15.3520055 136.615994,16.9279898 137.784,18.976 C138.952006,21.0240102 139.536,23.4399861 139.536,26.224 Z M128.736,23.968 C128.736,22.9439949 128.448003,22.1840025 127.872,21.688 C127.295997,21.1919975 126.576004,20.944 125.712,20.944 C123.75999,20.944 122.640001,21.9519899 122.352,23.968 L128.736,23.968 Z M153.552,17.92 C154.640005,16.3519922 155.967992,15.0960047 157.536,14.152 C159.104008,13.2079953 160.735992,12.736 162.432,12.736 L162.432,24.112 L159.408,24.112 C157.39199,24.112 155.912005,24.4639965 154.968,25.168 C154.023995,25.8720035 153.552,27.119991 153.552,28.912 L153.552,40 L142.896,40 L142.896,12.928 L153.552,12.928 L153.552,17.92 Z" id="Tinker-Toy-Shop" fill="#3CDAA7"></path>
        <path d="M205.088,6.016 L205.088,14.464 L196.064,14.464 L196.064,40 L185.408,40 L185.408,14.464 L176.48,14.464 L176.48,6.016 L205.088,6.016 Z M220.832,12.592 C223.552014,12.592 225.999989,13.1519944 228.176,14.272 C230.352011,15.3920056 232.055994,16.9999895 233.288,19.096 C234.520006,21.1920105 235.136,23.6479859 235.136,26.464 C235.136,29.2800141 234.520006,31.7359895 233.288,33.832 C232.055994,35.9280105 230.352011,37.5359944 228.176,38.656 C225.999989,39.7760056 223.552014,40.336 220.832,40.336 C218.111986,40.336 215.664011,39.7760056 213.488,38.656 C211.311989,37.5359944 209.608006,35.9280105 208.376,33.832 C207.143994,31.7359895 206.528,29.2800141 206.528,26.464 C206.528,23.6479859 207.143994,21.1920105 208.376,19.096 C209.608006,16.9999895 211.311989,15.3920056 213.488,14.272 C215.664011,13.1519944 218.111986,12.592 220.832,12.592 Z M220.832,21.808 C219.839995,21.808 219.008003,22.1999961 218.336,22.984 C217.663997,23.7680039 217.328,24.9279923 217.328,26.464 C217.328,28.0000077 217.655997,29.1599961 218.312,29.944 C218.968003,30.7280039 219.807995,31.12 220.832,31.12 C221.824005,31.12 222.655997,30.7280039 223.328,29.944 C224.000003,29.1599961 224.336,28.0000077 224.336,26.464 C224.336,24.9279923 224.000003,23.7680039 223.328,22.984 C222.655997,22.1999961 221.824005,21.808 220.832,21.808 Z M247.472,12.928 L252.56,26.656 L257.312,12.928 L269.072,12.928 L251.744,52.96 L240.08,52.96 L246.896,38.656 L235.616,12.928 L247.472,12.928 Z" id="Toy" fill="#E24B0A"></path>
        <path d="M308.656,29.968 C308.656,31.9200098 308.152005,33.6799922 307.144,35.248 C306.135995,36.8160078 304.67201,38.0559954 302.752,38.968 C300.83199,39.8800046 298.544013,40.336 295.888,40.336 C291.82398,40.336 288.472013,39.3840095 285.832,37.48 C283.191987,35.5759905 281.760001,32.7840184 281.536,29.104 L292.864,29.104 C293.024001,31.0560098 293.887992,32.032 295.456,32.032 C296.000003,32.032 296.439998,31.8880014 296.776,31.6 C297.112002,31.3119986 297.28,30.8960027 297.28,30.352 C297.28,29.551996 296.872004,28.9200023 296.056,28.456 C295.239996,27.9919977 293.920009,27.456003 292.096,26.848 C289.951989,26.1439965 288.168007,25.4240037 286.744,24.688 C285.319993,23.9519963 284.080005,22.8640072 283.024,21.424 C281.967995,19.9839928 281.44,18.1120115 281.44,15.808 C281.44,13.599989 282.007994,11.7200078 283.144,10.168 C284.280006,8.61599224 285.83199,7.440004 287.8,6.64 C289.76801,5.839996 291.983988,5.44 294.448,5.44 C298.51202,5.44 301.743988,6.38399056 304.144,8.272 C306.544012,10.1600094 307.855999,12.8799822 308.08,16.432 L296.608,16.432 C296.447999,14.639991 295.712007,13.744 294.4,13.744 C293.951998,13.744 293.584001,13.8799986 293.296,14.152 C293.007999,14.4240014 292.864,14.8319973 292.864,15.376 C292.864,16.1120037 293.271996,16.7119977 294.088,17.176 C294.904004,17.6400023 296.175991,18.175997 297.904,18.784 C300.080011,19.5520038 301.879993,20.3119962 303.304,21.064 C304.728007,21.8160038 305.975995,22.9199927 307.048,24.376 C308.120005,25.8320073 308.656,27.6959886 308.656,29.968 Z M331.36,12.736 C334.464016,12.736 336.887991,13.7759896 338.632,15.856 C340.376009,17.9360104 341.248,20.7519822 341.248,24.304 L341.248,40 L330.64,40 L330.64,25.648 C330.64,24.3679936 330.296003,23.3520038 329.608,22.6 C328.919997,21.8479962 328.000006,21.472 326.848,21.472 C325.663994,21.472 324.736003,21.8479962 324.064,22.6 C323.391997,23.3520038 323.056,24.3679936 323.056,25.648 L323.056,40 L312.4,40 L312.4,4.48 L323.056,4.48 L323.056,17.056 C323.888004,15.7759936 324.999993,14.736004 326.392,13.936 C327.784007,13.135996 329.43999,12.736 331.36,12.736 Z M358.72,12.592 C361.440014,12.592 363.887989,13.1519944 366.064,14.272 C368.240011,15.3920056 369.943994,16.9999895 371.176,19.096 C372.408006,21.1920105 373.024,23.6479859 373.024,26.464 C373.024,29.2800141 372.408006,31.7359895 371.176,33.832 C369.943994,35.9280105 368.240011,37.5359944 366.064,38.656 C363.887989,39.7760056 361.440014,40.336 358.72,40.336 C355.999986,40.336 353.552011,39.7760056 351.376,38.656 C349.199989,37.5359944 347.496006,35.9280105 346.264,33.832 C345.031994,31.7359895 344.416,29.2800141 344.416,26.464 C344.416,23.6479859 345.031994,21.1920105 346.264,19.096 C347.496006,16.9999895 349.199989,15.3920056 351.376,14.272 C353.552011,13.1519944 355.999986,12.592 358.72,12.592 Z M358.72,21.808 C357.727995,21.808 356.896003,22.1999961 356.224,22.984 C355.551997,23.7680039 355.216,24.9279923 355.216,26.464 C355.216,28.0000077 355.543997,29.1599961 356.2,29.944 C356.856003,30.7280039 357.695995,31.12 358.72,31.12 C359.712005,31.12 360.543997,30.7280039 361.216,29.944 C361.888003,29.1599961 362.224,28.0000077 362.224,26.464 C362.224,24.9279923 361.888003,23.7680039 361.216,22.984 C360.543997,22.1999961 359.712005,21.808 358.72,21.808 Z M394.48,12.592 C396.592011,12.592 398.495992,13.1439945 400.192,14.248 C401.888008,15.3520055 403.223995,16.9519895 404.2,19.048 C405.176005,21.1440105 405.664,23.6159858 405.664,26.464 C405.664,29.3120142 405.176005,31.7839895 404.2,33.88 C403.223995,35.9760105 401.888008,37.5759945 400.192,38.68 C398.495992,39.7840055 396.592011,40.336 394.48,40.336 C392.719991,40.336 391.208006,39.9760036 389.944,39.256 C388.679994,38.5359964 387.712003,37.5520062 387.04,36.304 L387.04,52.96 L376.384,52.96 L376.384,12.928 L387.04,12.928 L387.04,16.624 C387.712003,15.3759938 388.679994,14.3920036 389.944,13.672 C391.208006,12.9519964 392.719991,12.592 394.48,12.592 Z M390.928,21.904 C389.775994,21.904 388.832004,22.303996 388.096,23.104 C387.359996,23.904004 386.992,25.0239928 386.992,26.464 C386.992,27.9040072 387.359996,29.023996 388.096,29.824 C388.832004,30.624004 389.775994,31.024 390.928,31.024 C392.080006,31.024 393.023996,30.624004 393.76,29.824 C394.496004,29.023996 394.864,27.9040072 394.864,26.464 C394.864,25.0239928 394.496004,23.904004 393.76,23.104 C393.023996,22.303996 392.080006,21.904 390.928,21.904 Z" id="Shop" fill="#FAD808"></path>
    </g>
</svg>